<?xml version="1.0" encoding="UTF-8"?><svg id="Layer_1" xmlns="http://www.w3.org/2000/svg" viewBox="0 0 747.99 707.02"><defs><style>.cls-1{fill:#3e8acc;}</style></defs><path class="cls-1" d="m697.45,707.02c27.88.04,50.51-22.54,50.55-50.42,0-5.54-.9-11.04-2.67-16.28L540.71,34.37C533.8,13.85,514.57.02,492.91,0h-237.87c-21.66.01-40.9,13.84-47.81,34.37L2.68,640.35c-8.94,26.41,5.23,55.06,31.64,64,5.23,1.77,10.72,2.67,16.24,2.66h147.75c21.67,0,40.93-13.83,47.84-34.37l30.46-90.13,154.16,114.54c8.7,6.47,19.26,9.97,30.11,9.97m-96.12-390.54l112.94,334.66c2.98,8.8-1.74,18.35-10.54,21.33-1.73.58-3.54.88-5.36.89h-.94c-3.62,0-7.14-1.15-10.04-3.31l-289.42-215.03h151.25m196.68,218.35c3.8-10.65,3.88-22.27.22-32.97L305.11,34.37l-.22-.63h188.06c7.22-.01,13.64,4.58,15.96,11.41l204.51,605.98c2.98,8.8-1.74,18.34-10.53,21.32"/></svg>